<svg height="448pt" viewBox="-28 0 448 448" width="448pt" xmlns="http://www.w3.org/2000/svg"><path d="m72 88c0 4.417969 3.582031 8 8 8h176c4.417969 0 8-3.582031 8-8s-3.582031-8-8-8h-176c-4.417969 0-8 3.582031-8 8zm0 0"/><path d="m336 280c-.035156-27.824219-20.464844-51.417969-48-55.433594v79.433594h48zm0 0"/><path d="m0 392h96c8.835938 0 16-7.164062 16-16s-7.164062-16-16-16h-40c-4.417969 0-8-3.582031-8-8v-32h-48zm0 0"/><path d="m0 304h48v-79.433594c-27.535156 4.015625-47.9648438 27.609375-48 55.433594zm0 0"/><path d="m168 352v36.351562l10.449219 9.054688 13.199219-11.445312c3.007812-2.609376 7.472656-2.609376 10.480468 0l13.214844 11.445312 13.199219-11.445312c3.007812-2.613282 7.480469-2.613282 10.488281 0l13.207031 11.445312 13.226563-11.445312c3.007812-2.609376 7.472656-2.609376 10.480468 0l13.183594 11.445312 13.199219-11.445312c3.007813-2.609376 7.472656-2.609376 10.480469 0l13.230468 11.464843 13.234376-11.464843c3.003906-2.609376 7.472656-2.609376 10.480468 0l13.238282 11.472656 13.265624-11.472656c3.003907-2.597657 7.457032-2.597657 10.460938 0l5.28125 4.558593v-38.519531zm0 0"/><path d="m288 320h48v16h-48zm0 0"/><path d="m320.800781 414.046875-13.226562-11.460937-13.175781 11.453124c-1.769532 1.503907-4.109376 2.144532-6.398438 1.761719v32.199219h48v-38.046875l-4.71875 4.09375c-3.007812 2.609375-7.472656 2.609375-10.480469 0zm0 0"/><path d="m247.558594 64c-3.128906-27.386719-21.582032-50.59375-47.558594-59.816406v27.816406c0 4.417969-3.582031 8-8 8s-8-3.582031-8-8v-31.511719c-2.65625-.3125-5.328125-.4765622-8-.488281v40c0 4.417969-3.582031 8-8 8s-8-3.582031-8-8v-40c-2.671875.0117188-5.34375.175781-8 .488281v31.511719c0 4.417969-3.582031 8-8 8s-8-3.582031-8-8v-27.816406c-25.976562 9.222656-44.429688 32.429687-47.558594 59.816406zm0 0"/><path d="m104 344v1.007812c1.085938.320313 2.15625.699219 3.199219 1.136719.480469.175781.984375.304688 1.457031.503907 1.757812.757812 3.445312 1.679687 5.039062 2.742187.34375.234375.640626.519531.976563.761719 1.214844.871094 2.367187 1.824218 3.457031 2.847656.480469.472656.902344.984375 1.359375 1.480469.855469.910156 1.65625 1.867187 2.398438 2.871093.425781.59375.800781 1.199219 1.203125 1.816407.644531 1.03125 1.226562 2.097656 1.742187 3.199219.3125.65625.625 1.304687.894531 1.984374.472657 1.234376.863282 2.5 1.175782 3.785157.160156.625.363281 1.214843.480468 1.847656.8125 3.957031.8125 8.039063 0 12-.117187.632813-.320312 1.222656-.480468 1.847656-.3125 1.285157-.703125 2.546875-1.175782 3.785157-.269531.679687-.582031 1.328124-.894531 1.984374-.515625 1.097657-1.097656 2.167969-1.742187 3.199219-.386719.613281-.800782 1.222657-1.203125 1.816407-.742188 1.003906-1.542969 1.960937-2.398438 2.871093-.457031.496094-.878906 1.007813-1.359375 1.480469-1.089844 1.023438-2.242187 1.976562-3.457031 2.847656-.335937.238282-.632813.527344-.976563.757813-1.59375 1.066406-3.28125 1.984375-5.039062 2.746093-.472656.199219-.976562.328126-1.457031.503907-1.042969.4375-2.113281.816406-3.199219 1.136719v1.039062c0 4.417969 3.582031 8 8 8h40v-80h-40c-4.417969 0-8 3.582031-8 8zm0 0"/><path d="m160 432h-48c-13.253906 0-24-10.746094-24-24h-24v40h208v-40c.019531-1.222656.324219-2.421875.886719-3.503906l-2.191407-1.902344-13.214843 11.445312c-3.007813 2.609376-7.472657 2.609376-10.480469 0l-13.207031-11.445312-13.207031 11.445312c-3.007813 2.609376-7.476563 2.609376-10.480469 0l-13.21875-11.445312-13.199219 11.445312c-3.007812 2.609376-7.472656 2.609376-10.480469 0l-5.207031-4.511718v14.472656c0 4.417969-3.582031 8-8 8zm0 0"/><path d="m64 344h24c.042969-10.132812 6.445312-19.148438 16-22.527344v-97.472656h-40zm0 0"/><path d="m186.398438 207.199219c-.65625.097656-1.308594.175781-1.972657.257812-2.796875.34375-5.609375.527344-8.425781.542969h-16c-2.828125-.019531-5.652344-.203125-8.457031-.558594-.65625-.074218-1.304688-.152344-1.957031-.25-2.738282-.375-5.453126-.910156-8.128907-1.597656-.304687-.082031-.601562-.195312-.914062-.28125-1.527344-.433594-3.054688-.863281-4.542969-1.402344v20.089844c0 17.671875 14.328125 32 32 32s32-14.328125 32-32v-20.121094c-1.457031.519532-2.953125.953125-4.449219 1.367188-.351562.105468-.695312.234375-1.046875.328125-2.667968.699219-5.375 1.238281-8.105468 1.625zm0 0"/><path d="m232 136v-24h-128v24c.003906 19.984375 10.679688 38.445312 28 48.414062 8.488281 4.988282 18.15625 7.605469 28 7.585938h16c9.816406.027344 19.460938-2.574219 27.9375-7.527344 17.351562-9.976562 28.050781-28.457031 28.0625-48.472656zm0 0"/><path d="m232 224h40v112h-40zm0 0"/><path d="m120 320h40c4.417969 0 8 3.582031 8 8v8h48v-112c0 26.507812-21.492188 48-48 48s-48-21.492188-48-48zm0 0"/></svg>