<svg height="448pt" viewBox="0 0 448 448" width="448pt" xmlns="http://www.w3.org/2000/svg"><path d="m304 240h144v64h-144zm0 0"/><path d="m408 368h-288c-22.089844 0-40 17.910156-40 40s17.910156 40 40 40h288c22.089844 0 40-17.910156 40-40s-17.910156-40-40-40zm-240 72c-17.671875 0-32-14.328125-32-32s14.328125-32 32-32 32 14.328125 32 32-14.328125 32-32 32zm96 0c-17.671875 0-32-14.328125-32-32s14.328125-32 32-32 32 14.328125 32 32-14.328125 32-32 32zm96 0c-17.671875 0-32-14.328125-32-32s14.328125-32 32-32 32 14.328125 32 32-14.328125 32-32 32zm0 0"/><path d="m184 408c0 8.835938-7.164062 16-16 16s-16-7.164062-16-16 7.164062-16 16-16 16 7.164062 16 16zm0 0"/><path d="m376 408c0 8.835938-7.164062 16-16 16s-16-7.164062-16-16 7.164062-16 16-16 16 7.164062 16 16zm0 0"/><path d="m128 320h272v32h-272zm0 0"/><path d="m280 408c0 8.835938-7.164062 16-16 16s-16-7.164062-16-16 7.164062-16 16-16 16 7.164062 16 16zm0 0"/><path d="m0 0v208h9.136719l22.960937-149.375c.445313-2.996094 2.546875-5.480469 5.425782-6.421875 2.878906-.9375 6.042968-.171875 8.171874 1.980469l112.382813 112.425781 22.609375-22.609375-144-144zm0 0"/><path d="m0 259.71875 58.992188 39.328125 18.761718-75.046875h-77.753906zm0 0"/><path d="m197.65625 149.65625-33.921875 33.917969-19.734375 19.738281v100.6875h144v-176h-68.6875zm31.601562-5.65625h34.742188c4.417969 0 8 3.582031 8 8v80c0 4.417969-3.582031 8-8 8h-96c-4.417969 0-8-3.582031-8-8v-18.742188c0-2.125.84375-4.15625 2.34375-5.65625l61.257812-61.257812c1.5-1.5 3.53125-2.34375 5.65625-2.34375zm0 0"/><path d="m256 160h-23.433594l-56.566406 56.566406v7.433594h80zm0 0"/></svg>