<?xml version="1.0" encoding="iso-8859-1"?>
<!-- Generator: Adobe Illustrator 19.0.0, SVG Export Plug-In . SVG Version: 6.00 Build 0)  -->
<svg version="1.1" id="Capa_1" xmlns="http://www.w3.org/2000/svg" xmlns:xlink="http://www.w3.org/1999/xlink" x="0px" y="0px"
	 viewBox="0 0 512 512" style="enable-background:new 0 0 512 512;" xml:space="preserve">
<g>
	<g>
		<g>
			<path d="M93.867,51.2h25.6v231.936c2.726-1.033,5.619-1.554,8.533-1.536h8.533H153.6h8.533c2.915-0.018,5.808,0.503,8.533,1.536
				V51.2h25.6c14.138,0,25.6-11.462,25.6-25.6S210.405,0,196.267,0h-102.4c-14.138,0-25.6,11.461-25.6,25.6S79.728,51.2,93.867,51.2
				z M204.8,25.6c0,4.713-3.82,8.533-8.533,8.533C200.974,34.119,204.786,30.307,204.8,25.6c-0.014-4.707-3.826-8.519-8.533-8.533
				C200.98,17.067,204.8,20.887,204.8,25.6z"/>
			<path d="M127.317,298.667c-0.291,0.016-0.579,0.073-0.853,0.171c-0.231-0.009-0.461,0.02-0.683,0.085
				c-0.171,0.085-0.341,0.085-0.512,0.171c-1.646,0.584-3.075,1.655-4.096,3.072c-0.276,0.337-0.506,0.711-0.683,1.109
				c-0.596,1.076-0.946,2.271-1.024,3.499v17.493c0,14.138,11.461,25.6,25.6,25.6s25.6-11.462,25.6-25.6V307.2
				c-0.024-4.539-3.575-8.277-8.107-8.533H127.317z"/>
			<path d="M221.867,298.667h-35.669c1.033,2.726,1.554,5.619,1.536,8.533v8.533v8.533c0.003,20.278-14.266,37.757-34.133,41.813
				v34.987c0,4.713-3.82,8.533-8.533,8.533s-8.533-3.82-8.533-8.533V366.08c-19.868-4.057-34.136-21.536-34.133-41.813v-8.533V307.2
				c-0.018-2.915,0.503-5.808,1.536-8.533H68.267c-9.414,0.028-17.039,7.652-17.067,17.067V435.2
				c0.001,0.691,0.087,1.378,0.256,2.048C51.627,438.016,70.997,512,145.067,512s93.44-73.984,93.611-74.752
				c0.169-0.67,0.255-1.357,0.256-2.048V315.733C238.906,306.319,231.281,298.694,221.867,298.667z"/>
			<path d="M418.133,51.2c14.138,0,25.6-11.462,25.6-25.6S432.272,0,418.133,0h-102.4c-14.138,0-25.6,11.461-25.6,25.6
				s11.462,25.6,25.6,25.6h25.6v231.936c2.726-1.033,5.619-1.554,8.533-1.536h8.533h17.067H384c2.915-0.018,5.808,0.503,8.533,1.536
				V51.2H418.133z M426.667,25.6c0,4.713-3.821,8.533-8.533,8.533C422.84,34.119,426.653,30.307,426.667,25.6
				c-0.014-4.707-3.826-8.519-8.533-8.533C422.846,17.067,426.667,20.887,426.667,25.6z"/>
			<path d="M391.851,303.872c-0.194-0.444-0.422-0.872-0.683-1.28l-0.171-0.171c-1.083-1.684-2.758-2.902-4.693-3.413
				c-0.085,0-0.171-0.085-0.256-0.085c-0.161-0.07-0.337-0.099-0.512-0.085c-0.302-0.105-0.619-0.163-0.939-0.171h-35.584
				c-0.085,0-0.085-0.085-0.171-0.085v0.085h-0.171c-4.016,0.699-7.042,4.041-7.339,8.107v17.493
				c0.005,4.231,1.06,8.395,3.072,12.117c0.335,0.512,0.621,1.055,0.853,1.621c2.109,3.133,4.803,5.827,7.936,7.936
				c0.566,0.233,1.109,0.518,1.621,0.853c7.559,4.096,16.676,4.096,24.235,0c0.512-0.335,1.055-0.621,1.621-0.853
				c3.133-2.109,5.827-4.803,7.936-7.936c0.233-0.566,0.518-1.109,0.853-1.621c2.012-3.722,3.067-7.886,3.072-12.117V307.2
				c-0.025-1.106-0.227-2.2-0.597-3.243L391.851,303.872z"/>
			<path d="M358.4,366.08c-6.195-1.243-12.028-3.868-17.067-7.68v128c0.017,2.262,0.903,4.432,2.475,6.059l17.067,17.067
				c3.365,3.3,8.752,3.3,12.117,0l17.067-17.067c1.572-1.627,2.458-3.796,2.475-6.059v-128c-5.038,3.812-10.872,6.437-17.067,7.68
				C369.835,367.218,364.032,367.218,358.4,366.08z"/>
			<path d="M443.733,298.667h-35.669c1.033,2.726,1.554,5.619,1.536,8.533v8.533v8.533c0.02,2.867-0.266,5.727-0.853,8.533
				c-1.243,6.194-3.868,12.028-7.68,17.067h8.533V486.4c0.017,2.262,0.903,4.432,2.475,6.059l17.067,17.067
				c3.365,3.3,8.752,3.3,12.117,0l17.067-17.067c1.572-1.627,2.458-3.796,2.475-6.059V315.733
				C460.773,306.319,453.148,298.694,443.733,298.667z"/>
			<path d="M324.267,324.267v-8.533V307.2c-0.018-2.915,0.503-5.808,1.536-8.533h-35.669c-9.414,0.028-17.039,7.652-17.067,17.067
				V486.4c0.017,2.262,0.903,4.432,2.475,6.059l17.067,17.067c3.365,3.3,8.752,3.3,12.117,0l17.067-17.067
				c1.572-1.627,2.458-3.796,2.475-6.059V349.867h8.533c-3.812-5.038-6.437-10.872-7.68-17.067
				C324.533,329.994,324.246,327.133,324.267,324.267z"/>
		</g>
	</g>
</g>
<g>
</g>
<g>
</g>
<g>
</g>
<g>
</g>
<g>
</g>
<g>
</g>
<g>
</g>
<g>
</g>
<g>
</g>
<g>
</g>
<g>
</g>
<g>
</g>
<g>
</g>
<g>
</g>
<g>
</g>
</svg>
