<?xml version="1.0" encoding="iso-8859-1"?>
<!-- Generator: Adobe Illustrator 19.0.0, SVG Export Plug-In . SVG Version: 6.00 Build 0)  -->
<svg version="1.1" id="Layer_1" xmlns="http://www.w3.org/2000/svg" xmlns:xlink="http://www.w3.org/1999/xlink" x="0px" y="0px"
	 viewBox="0 0 512 512" style="enable-background:new 0 0 512 512;" xml:space="preserve">
<g>
	<g>
		<path d="M496.327,373.305H15.673C7.018,373.305,0,380.323,0,388.979c0,9.622,0,92.985,0,104.452
			c0,8.656,7.018,15.674,15.673,15.674h72.795c8.656,0,15.673-7.018,15.673-15.674v-31.557h303.716v31.557
			c0,8.656,7.018,15.674,15.673,15.674h72.795c8.656,0,15.673-7.018,15.673-15.674c0-11.675,0-93.615,0-104.452
			C512,380.323,504.982,373.305,496.327,373.305z"/>
	</g>
</g>
<g>
	<g>
		<path d="M378.802,195.659c0.094-2.947,0.094-5.899,0-8.846l24.939-24.94c8.526-8.524,4.603-23.107-7.027-26.222l-25.963-6.957
			l-54.498,54.495c5.087,47.967-35.193,87.592-82.548,82.547l-54.537,54.537l6.957,25.964c3.122,11.644,17.709,15.542,26.223,7.027
			l24.94-24.94c2.947,0.094,5.899,0.094,8.847,0l24.94,24.94c8.505,8.506,23.092,4.649,26.223-7.026l9.116-34.02
			c2.619-1.402,5.193-2.891,7.717-4.462l34.026,9.118c11.639,3.124,22.312-7.565,19.196-19.196l-9.118-34.026
			c1.57-2.523,3.06-5.099,4.462-7.716l34.02-9.116c11.646-3.12,15.54-17.709,7.027-26.222L378.802,195.659z"/>
	</g>
</g>
<g>
	<g>
		<path d="M374.855,58.09c-73.589-73.589-192.695-73.596-266.289,0c-50.971,50.97-66.628,123.772-46.992,188.166L4.591,303.24
			C1.651,306.179,0,310.165,0,314.322v27.635h113.152c10.922-10.921,247.865-247.864,261.703-261.702
			C380.971,74.141,380.976,64.21,374.855,58.09z M277.45,92.606l-52.409,52.409c-0.015-0.015-0.027-0.031-0.042-0.046
			c-8.161-8.162-21.393-8.162-29.554,0c-8.161,8.162-8.162,21.393,0,29.554c0.015,0.015,0.031,0.027,0.046,0.042l-52.409,52.409
			c-8.733,8.735-23.691,4.385-26.379-7.67c-9.628-43.155,3.229-87.524,34.392-118.686c31.161-31.161,75.525-44.019,118.685-34.393
			C281.825,68.913,286.179,83.877,277.45,92.606z"/>
	</g>
</g>
<g>
</g>
<g>
</g>
<g>
</g>
<g>
</g>
<g>
</g>
<g>
</g>
<g>
</g>
<g>
</g>
<g>
</g>
<g>
</g>
<g>
</g>
<g>
</g>
<g>
</g>
<g>
</g>
<g>
</g>
</svg>
