<?xml version="1.0" encoding="iso-8859-1"?>
<!-- Generator: Adobe Illustrator 19.0.0, SVG Export Plug-In . SVG Version: 6.00 Build 0)  -->
<svg version="1.1" id="Capa_1" xmlns="http://www.w3.org/2000/svg" xmlns:xlink="http://www.w3.org/1999/xlink" x="0px" y="0px"
	 viewBox="0 0 512 512" style="enable-background:new 0 0 512 512;" xml:space="preserve">
<g>
	<g>
		<path d="M195.723,115.889c-8.213-8.431-19.749-13.7-32.491-13.7c-13.86,0-86.092,0-100.209,0
			c-24.723,0-44.938,19.804-45.061,44.241v137.741c0,10.355,8.394,18.749,18.75,18.749s18.75-8.394,18.75-18.749l-0.001-137.646
			c0-0.001,0-0.003,0-0.004c0.014-2.243,1.84-4.053,4.083-4.046c2.243,0.007,4.057,1.828,4.057,4.07L63.59,281.865h0.008v179.833
			c0,12.426,10.073,22.498,22.499,22.498c12.426,0,22.499-10.073,22.499-22.498V281.866h9.714v179.833
			c0,12.426,10.073,22.498,22.499,22.498s22.499-10.073,22.499-22.498V341.471c-10.36-5.765-17.386-16.824-17.386-29.497
			c0-0.085,0-137.73,0-137.815C146.067,145.157,167.493,120.739,195.723,115.889z"/>
	</g>
</g>
<g>
	<g>
		<circle cx="113.45" cy="50.948" r="38.857"/>
	</g>
</g>
<g>
	<g>
		<path d="M341.205,152.695l-20.363,20.332v129.813c11.125,0.947,20.364-7.819,20.364-18.668L341.205,152.695z"/>
	</g>
</g>
<g>
	<g>
		<path d="M448.976,102.191c-6.902,0-63.102,0-70.797,0c-2.225,9.24-3.262,16.845-11.042,24.611l-17.793,17.774v317.123
			c0,12.426,10.073,22.498,22.499,22.498s22.499-10.073,22.499-22.498V281.866h9.714v179.833c0,12.426,10.073,22.498,22.499,22.498
			s22.499-10.073,22.499-22.498c0-293.723,0.01-132.567,0-315.248c0-2.176,1.352-3.941,3.528-3.948
			c2.176-0.006,3.947,1.749,3.959,3.925v0.002v137.741c0,10.355,8.394,18.749,18.75,18.749c10.356,0,18.749-8.394,18.749-18.749
			V146.338C493.915,121.995,473.702,102.191,448.976,102.191z"/>
	</g>
</g>
<g>
	<g>
		<path d="M396.677,12.181c0.94,4.726,0.857,9.641-0.305,14.466l-14.258,59.207c5.156,2.527,10.951,3.952,17.081,3.952
			c21.461,0,38.857-17.397,38.857-38.857C438.051,28.686,419.304,10.737,396.677,12.181z"/>
	</g>
</g>
<g>
	<g>
		<path d="M367.959,0.52c-10.019-2.408-20.202,3.772-22.618,13.839l-19.033,79.038l-37.137,37.081
			c-34.541-0.64-8.718-0.484-83.196-0.484c-24.652,0-44.94,19.787-45.06,44.241c0,2.032,0,135.557,0,137.741
			c0,10.231,8.332,18.749,18.749,18.749c10.355,0,18.75-8.394,18.75-18.75c-0.001-146.773-0.103-137.885,0.168-138.967
			c1.152-4.603,7.971-3.758,7.97,0.982c-0.001,27.498-0.008,130.705-0.008,135.678c0.012,0,0.008,179.821,0.008,179.834
			c0,12.425,10.073,22.498,22.499,22.498c12.429,0,22.499-10.076,22.499-22.498V309.668h9.714v179.833
			c0,12.425,10.073,22.498,22.499,22.498c12.428,0,22.499-10.076,22.499-22.498c0-174.095,0-323.733,0-323.733
			s-0.16,0.794,50.285-49.576c2.526-2.521,4.208-5.674,4.979-8.877c1.239-5.147,19.048-79.097,20.273-84.179
			C384.191,13.195,378.112,2.966,367.959,0.52z"/>
	</g>
</g>
<g>
	<g>
		<path d="M256.4,39.893c-21.455,0-38.857,17.387-38.857,38.857c0,21.45,17.416,38.857,38.857,38.857
			c21.495,0,38.857-17.426,38.857-38.857C295.258,57.289,277.86,39.893,256.4,39.893z"/>
	</g>
</g>
<g>
</g>
<g>
</g>
<g>
</g>
<g>
</g>
<g>
</g>
<g>
</g>
<g>
</g>
<g>
</g>
<g>
</g>
<g>
</g>
<g>
</g>
<g>
</g>
<g>
</g>
<g>
</g>
<g>
</g>
</svg>
