<?xml version="1.0" standalone="no"?>
<!DOCTYPE svg PUBLIC "-//W3C//DTD SVG 20010904//EN"
 "http://www.w3.org/TR/2001/REC-SVG-20010904/DTD/svg10.dtd">
<svg version="1.0" xmlns="http://www.w3.org/2000/svg"
 width="270.000000pt" height="270.000000pt" viewBox="0 0 270.000000 270.000000"
 preserveAspectRatio="xMidYMid meet">
<metadata>
Created by potrace 1.11, written by Peter Selinger 2001-2013
</metadata>
<g transform="translate(0.000000,270.000000) scale(0.100000,-0.100000)"
fill="#000000" stroke="none">
<path d="M2225 2524 c-27 -25 -77 -71 -110 -103 -74 -71 -132 -114 -142 -108
-7 5 -64 12 -166 22 -15 1 -29 -1 -32 -5 -3 -4 7 -29 20 -55 24 -44 26 -85 5
-85 -5 0 -7 -6 -4 -14 6 -15 -17 -28 -33 -18 -5 4 -13 20 -17 36 -9 35 -59
102 -88 117 -28 15 -99 15 -134 0 -31 -13 -86 -80 -90 -108 -1 -10 -5 -39 -8
-64 -5 -33 -3 -49 7 -58 12 -10 12 -16 0 -44 -11 -24 -34 -43 -83 -70 -37 -20
-80 -53 -94 -72 -15 -19 -33 -35 -39 -35 -7 0 -30 -9 -51 -19 -20 -11 -50 -20
-64 -20 -15 0 -37 -2 -48 -4 -26 -6 -125 -47 -139 -58 -18 -13 -120 -49 -140
-49 -22 0 -115 -30 -176 -56 -30 -13 -35 -20 -31 -40 4 -21 0 -24 -24 -25 -45
-2 -69 2 -72 12 -2 5 -9 9 -15 9 -8 0 -7 -4 1 -12 24 -24 14 -40 -21 -33 -30
7 -31 6 -12 -9 19 -15 18 -15 -24 -16 -72 0 -36 -16 61 -27 27 -3 48 -10 48
-15 0 -5 10 -2 22 6 12 9 31 16 42 16 20 0 162 44 211 65 44 20 146 49 175 51
43 2 112 14 179 31 60 14 65 14 77 -1 6 -9 10 -26 7 -36 -3 -11 4 -31 16 -46
22 -28 28 -54 11 -54 -16 0 -22 -43 -11 -73 9 -24 4 -40 -49 -136 -32 -60 -61
-120 -64 -135 -3 -14 -8 -35 -11 -46 -3 -11 -2 -27 3 -37 8 -13 3 -27 -21 -60
-17 -24 -34 -43 -39 -43 -4 0 -8 -5 -8 -11 0 -11 -103 -143 -120 -154 -5 -3
-22 14 -37 37 -35 54 -96 115 -152 154 -40 26 -45 36 -61 99 -10 39 -23 82
-29 97 -10 27 -10 27 -52 13 -23 -9 -48 -20 -55 -26 -18 -15 -34 -2 -34 26 0
33 -17 36 -216 38 -133 2 -175 -1 -198 -13 -53 -27 -40 -64 24 -75 19 -3 45
-13 58 -21 12 -8 22 -12 22 -9 0 4 13 -3 29 -15 16 -11 33 -20 38 -19 4 1 22
-4 38 -11 17 -7 34 -12 39 -11 5 1 56 -47 114 -106 96 -98 184 -173 303 -258
23 -16 63 -47 87 -69 43 -36 49 -38 91 -32 38 5 114 46 141 75 3 4 37 33 75
66 39 33 72 62 75 65 3 3 33 29 68 57 l62 52 53 -23 c28 -13 70 -29 92 -36 22
-7 51 -21 65 -30 14 -10 36 -21 50 -25 22 -7 92 -55 225 -154 22 -17 69 -59
105 -93 65 -63 157 -140 201 -168 30 -20 60 -50 138 -144 53 -63 68 -75 85
-70 26 8 219 207 242 250 20 36 13 64 -14 64 -17 0 -98 -51 -112 -70 -9 -12
-79 -32 -90 -25 -15 9 -12 26 10 68 11 20 20 41 20 46 0 10 -137 81 -157 81
-12 0 -60 26 -73 40 -3 3 -31 19 -62 35 -32 17 -58 33 -58 37 0 3 -19 26 -42
50 -24 24 -48 56 -55 71 -7 14 -32 40 -55 56 -24 17 -48 35 -55 41 -7 5 -16
10 -20 10 -4 0 -21 12 -38 26 -16 14 -62 44 -103 67 -47 27 -72 47 -70 57 5
20 48 14 69 -10 10 -11 21 -15 29 -10 13 8 -18 61 -87 146 -29 36 -31 43 -18
54 12 10 14 33 8 134 -5 107 -6 164 -3 350 1 27 6 59 13 70 6 12 10 30 9 41
-2 14 10 28 40 47 24 15 72 55 108 90 36 35 98 93 138 130 45 42 80 84 92 111
21 46 82 113 112 123 10 3 18 9 18 13 0 4 19 27 43 51 23 24 37 40 30 36 -26
-14 -21 15 8 48 41 48 34 45 -26 -10z m-641 -1390 c3 -8 -1 -14 -8 -14 -16 0
-38 24 -30 33 9 9 32 -3 38 -19z"/>
</g>
</svg>
