<?xml version="1.0" encoding="iso-8859-1"?>
<!-- Generator: Adobe Illustrator 19.0.0, SVG Export Plug-In . SVG Version: 6.00 Build 0)  -->
<svg version="1.1" id="Layer_1" xmlns="http://www.w3.org/2000/svg" xmlns:xlink="http://www.w3.org/1999/xlink" x="0px" y="0px"
	 viewBox="0 0 512 512" style="enable-background:new 0 0 512 512;" xml:space="preserve">
<g>
	<g>
		<path d="M501.801,37.737H10.199C4.566,37.737,0,42.304,0,47.936v377.37c0,5.632,4.566,10.199,10.199,10.199h18.359v28.558
			c0,5.632,4.566,10.199,10.199,10.199h434.486c5.632,0,10.199-4.567,10.199-10.199v-28.558h18.359
			c5.632,0,10.199-4.567,10.199-10.199V47.936C512,42.304,507.433,37.737,501.801,37.737z M20.398,415.108V58.135h225.402v356.972
			H38.757H20.398z M463.044,453.865H48.956v-18.359h414.088V453.865z M491.602,415.108h-18.359H266.199V58.135h225.402V415.108z"/>
	</g>
</g>
<g>
	<g>
		<path d="M199.394,201.995c-14.06,0-25.498,11.438-25.498,25.498c0,14.06,11.438,25.498,25.498,25.498
			c14.06,0,25.498-11.438,25.498-25.498C224.892,213.434,213.454,201.995,199.394,201.995z M199.394,232.593
			c-2.812,0-5.1-2.288-5.1-5.1c0-2.812,2.288-5.1,5.1-5.1c2.812,0,5.1,2.288,5.1,5.1
			C204.494,230.305,202.206,232.593,199.394,232.593z"/>
	</g>
</g>
<g>
	<g>
		<path d="M312.606,201.995c-14.06,0-25.498,11.438-25.498,25.498c0,14.06,11.438,25.498,25.498,25.498s25.498-11.438,25.498-25.498
			C338.104,213.434,326.665,201.995,312.606,201.995z M312.606,232.593c-2.812,0-5.1-2.288-5.1-5.1c0-2.812,2.288-5.1,5.1-5.1
			s5.1,2.288,5.1,5.1C317.705,230.305,315.417,232.593,312.606,232.593z"/>
	</g>
</g>
<g>
	<g>
		<path d="M469.163,240.319c-5.632,0-10.199,4.567-10.199,10.199V390.68c0,5.632,4.567,10.199,10.199,10.199
			c5.632,0,10.199-4.567,10.199-10.199V250.518C479.363,244.886,474.795,240.319,469.163,240.319z"/>
	</g>
</g>
<g>
	<g>
		<path d="M469.163,200.975c-5.632,0-10.199,4.567-10.199,10.199v3.688c0,5.632,4.567,10.199,10.199,10.199
			c5.632,0,10.199-4.567,10.199-10.199v-3.688C479.363,205.542,474.795,200.975,469.163,200.975z"/>
	</g>
</g>
<g>
</g>
<g>
</g>
<g>
</g>
<g>
</g>
<g>
</g>
<g>
</g>
<g>
</g>
<g>
</g>
<g>
</g>
<g>
</g>
<g>
</g>
<g>
</g>
<g>
</g>
<g>
</g>
<g>
</g>
</svg>
